<svg width="198" height="194" viewBox="0 0 198 194" fill="none" xmlns="http://www.w3.org/2000/svg">
<style>
svg { overflow: visible; }
@keyframes kf_Vector_transform_0 {
  0% {
    animation-timing-function: ease-out;
    transform: translate(98.649px, 96.989px) rotate(-3.142rad) translate(-98.649px, -96.989px);
  }
  100% {
    transform: translate(98.649px, 96.989px) rotate(0rad) translate(-98.649px, -96.989px);
  }
}
#Vector {
  transform-origin: 0 0;
  animation: kf_Vector_transform_0 14.277747s linear infinite;
}
</style>
<g id="Vector">
<path d="M98.6491 108.978C86.0828 108.978 72.4694 149.089 72.4694 169.489C72.4694 189.889 86.0828 193.978 98.6491 193.978C111.215 193.978 124.829 189.889 124.829 169.489C124.829 149.089 111.215 108.978 98.6491 108.978Z" id="Vector_bg_0" fill="#F25076" fill-opacity="0.4">
</path>
<path d="M86.9216 103.33C79.0867 93.5056 39.2389 107.871 23.2896 120.59C7.34031 133.309 12.6311 146.502 20.466 156.327C28.3009 166.152 39.9859 174.245 55.9352 161.526C71.8845 148.807 94.7565 113.155 86.9216 103.33Z" fill="#F25076" fill-opacity="0.4"/>
<path d="M84.0252 90.6402C86.8215 78.389 50.7457 56.1914 30.8572 51.652C10.9687 47.1126 3.95261 59.4747 1.15631 71.7259C-1.63999 83.9771 -0.682386 98.1592 19.2061 102.699C39.0946 107.238 81.2289 102.891 84.0252 90.6402Z" fill="#F25076" fill-opacity="0.4"/>
<path d="M92.1408 80.4635C103.463 75.0112 98.3245 32.9661 89.4733 14.5863C80.6221 -3.79348 66.5825 -1.57118 55.2607 3.88112C43.9389 9.33343 33.4479 18.9244 42.2991 37.3042C51.1503 55.684 80.819 85.9158 92.1408 80.4635Z" fill="#F25076" fill-opacity="0.4"/>
<path d="M105.157 80.4635C116.479 85.9158 146.148 55.684 154.999 37.3042C163.85 18.9244 153.359 9.33343 142.038 3.88112C130.716 -1.57118 116.676 -3.79348 107.825 14.5863C98.9737 32.9661 93.8356 75.0112 105.157 80.4635Z" fill="#F25076" fill-opacity="0.4"/>
<path d="M113.273 90.6402C116.069 102.891 158.204 107.238 178.092 102.699C197.981 98.1592 198.938 83.9771 196.142 71.7259C193.346 59.4747 186.33 47.1126 166.441 51.652C146.553 56.1914 110.477 78.389 113.273 90.6402Z" fill="#F25076" fill-opacity="0.4"/>
<path d="M110.377 103.33C102.542 113.155 125.414 148.807 141.363 161.526C157.312 174.245 168.997 166.152 176.832 156.327C184.667 146.502 189.958 133.309 174.009 120.59C158.059 107.871 118.212 93.5056 110.377 103.33Z" fill="#F25076" fill-opacity="0.4"/>
<path d="M98.6491 108.978C87.3395 108.978 75.0874 146.766 75.0874 164.766C75.0874 182.766 87.3395 183.978 98.6491 183.978C109.959 183.978 122.211 182.766 122.211 164.766C122.211 146.766 109.959 108.978 98.6491 108.978Z" fill="#F25076" fill-opacity="0.4"/>
<path d="M86.9216 103.33C79.8702 94.4881 42.6875 108.469 28.6145 119.692C14.5415 130.915 21.2329 141.25 28.2843 150.092C35.3357 158.934 43.9225 167.758 57.9955 156.535C72.0685 145.312 93.973 112.173 86.9216 103.33Z" fill="#F25076" fill-opacity="0.4"/>
<path d="M84.0252 90.6402C86.5418 79.6141 52.4278 59.2606 34.8791 55.2552C17.3304 51.2498 13.4222 62.925 10.9056 73.9511C8.38901 84.9772 6.84451 97.1919 24.3932 101.197C41.9419 105.203 81.5086 101.666 84.0252 90.6402Z" fill="#F25076" fill-opacity="0.4"/>
<path d="M92.1408 80.4635C102.33 75.5564 96.9737 36.1949 89.1638 19.9775C81.3539 3.76005 69.7892 7.98375 59.5996 12.8909C49.41 17.798 38.8971 24.2062 46.707 40.4235C54.5169 56.6409 81.9512 85.3706 92.1408 80.4635Z" fill="#F25076" fill-opacity="0.4"/>
<path d="M105.157 80.4635C115.347 85.3706 142.781 56.6409 150.591 40.4235C158.401 24.2062 147.888 17.798 137.699 12.8909C127.509 7.98375 115.944 3.76005 108.134 19.9775C100.324 36.1949 94.9678 75.5564 105.157 80.4635Z" fill="#F25076" fill-opacity="0.4"/>
<path d="M113.273 90.6402C115.79 101.666 155.356 105.203 172.905 101.197C190.454 97.1919 188.909 84.9772 186.393 73.9511C183.876 62.925 179.968 51.2498 162.419 55.2552C144.87 59.2606 110.756 79.6141 113.273 90.6402Z" fill="#F25076" fill-opacity="0.4"/>
<path d="M110.377 103.33C103.325 112.173 125.23 145.312 139.303 156.535C153.376 167.758 161.963 158.934 169.014 150.092C176.065 141.25 182.757 130.915 168.684 119.692C154.611 108.469 117.428 94.4881 110.377 103.33Z" fill="#F25076" fill-opacity="0.4"/>
<path d="M98.6491 108.978C89.6014 108.978 79.7997 142.585 79.7997 156.265C79.7997 169.945 89.6014 165.978 98.6491 165.978C107.697 165.978 117.499 169.945 117.499 156.265C117.499 142.585 107.697 108.978 98.6491 108.978Z" fill="#F25076" fill-opacity="0.4"/>
<path d="M86.9216 103.33C81.2804 96.2565 48.8946 109.547 38.1991 118.076C27.5036 126.605 36.716 131.796 42.3572 138.869C47.9984 145.943 51.0085 156.079 61.704 147.55C72.3995 139.021 92.5628 110.404 86.9216 103.33Z" fill="#F25076" fill-opacity="0.4"/>
<path d="M84.0252 90.6402C86.0385 81.8193 55.4557 64.7853 42.1187 61.7412C28.7817 58.6971 30.4676 69.1356 28.4543 77.9565C26.441 86.7774 20.3929 95.4507 33.7299 98.4948C47.0669 101.539 82.0119 99.4611 84.0252 90.6402Z" fill="#F25076" fill-opacity="0.4"/>
<path d="M92.1408 80.4635C100.293 76.5378 94.5422 42.0067 88.6067 29.6814C82.6712 17.3561 75.5612 25.1825 67.4095 29.1082C59.2578 33.0339 48.7058 33.713 54.6413 46.0383C60.5768 58.3636 83.9891 84.3892 92.1408 80.4635Z" fill="#F25076" fill-opacity="0.4"/>
<path d="M105.157 80.4635C113.309 84.3892 136.721 58.3636 142.657 46.0383C148.592 33.713 138.04 33.0339 129.889 29.1082C121.737 25.1825 114.627 17.3561 108.692 29.6814C102.756 42.0067 97.0057 76.5378 105.157 80.4635Z" fill="#F25076" fill-opacity="0.4"/>
<path d="M113.273 90.6402C115.286 99.4611 150.231 101.539 163.568 98.4948C176.905 95.4507 170.857 86.7774 168.844 77.9565C166.831 69.1356 168.517 58.6971 155.18 61.7412C141.843 64.7853 111.26 81.8193 113.273 90.6402Z" fill="#F25076" fill-opacity="0.4"/>
<path d="M110.377 103.33C104.735 110.404 124.899 139.021 135.594 147.55C146.29 156.079 149.3 145.943 154.941 138.869C160.582 131.796 169.795 126.605 159.099 118.076C148.404 109.547 116.018 96.2565 110.377 103.33Z" fill="#F25076" fill-opacity="0.4"/>
<path d="M98.6491 108.978C92.3157 108.978 85.4545 137.567 85.4545 146.063C85.4545 154.559 92.3157 144.378 98.6491 144.378C104.983 144.378 111.844 154.559 111.844 146.063C111.844 137.567 104.983 108.978 98.6491 108.978Z" fill="#F25076" fill-opacity="0.4"/>
<path d="M86.9216 103.33C82.9728 98.3786 56.3432 110.839 49.7008 116.136C43.0584 121.434 55.296 120.45 59.2448 125.402C63.1936 130.354 59.5117 142.066 66.1541 136.768C72.7965 131.471 90.8704 108.282 86.9216 103.33Z" fill="#F25076" fill-opacity="0.4"/>
<path d="M84.0252 90.6402C85.4345 84.4656 59.0892 71.4149 50.8062 69.5243C42.5232 67.6337 50.922 76.5883 49.5127 82.7629C48.1034 88.9375 36.651 93.3612 44.934 95.2518C53.217 97.1424 82.6159 96.8148 84.0252 90.6402Z" fill="#F25076" fill-opacity="0.4"/>
<path d="M92.1408 80.4635C97.847 77.7155 91.6245 48.9808 87.9382 41.3262C84.2519 33.6716 82.4876 45.8212 76.7814 48.5692C71.0752 51.3172 60.4761 45.1215 64.1624 52.7761C67.8487 60.4307 86.4346 83.2115 92.1408 80.4635Z" fill="#F25076" fill-opacity="0.4"/>
<path d="M105.157 80.4635C110.864 83.2115 129.45 60.4307 133.136 52.7761C136.822 45.1215 126.223 51.3172 120.517 48.5692C114.811 45.8212 113.046 33.6716 109.36 41.3262C105.674 48.9808 99.4512 77.7155 105.157 80.4635Z" fill="#F25076" fill-opacity="0.4"/>
<path d="M113.273 90.6402C114.682 96.8148 144.081 97.1424 152.364 95.2518C160.647 93.3612 149.195 88.9375 147.786 82.7629C146.376 76.5883 154.775 67.6337 146.492 69.5243C138.209 71.4149 111.864 84.4656 113.273 90.6402Z" fill="#F25076" fill-opacity="0.4"/>
<path d="M110.377 103.33C106.428 108.282 124.502 131.471 131.144 136.768C137.787 142.066 134.105 130.354 138.053 125.402C142.002 120.45 154.24 121.434 147.597 116.136C140.955 110.839 114.325 98.3786 110.377 103.33Z" fill="#F25076" fill-opacity="0.4"/>
<path d="M98.6491 108.978C94.8491 108.978 90.7324 132.884 90.7324 136.541C90.7324 140.199 94.8491 124.218 98.6491 124.218C102.449 124.218 106.566 140.199 106.566 136.541C106.566 132.884 102.449 108.978 98.6491 108.978Z" fill="#F25076" fill-opacity="0.4"/>
<path d="M86.9216 103.33C84.5523 100.359 63.2952 112.046 60.4356 114.326C57.576 116.607 72.6372 109.861 75.0065 112.832C77.3758 115.803 67.448 128.986 70.3076 126.705C73.1672 124.425 89.2909 106.301 86.9216 103.33Z" fill="#F25076" fill-opacity="0.4"/>
<path d="M84.0252 90.6402C84.8708 86.9354 62.4804 77.6024 58.9145 76.7885C55.3486 75.9746 70.0129 83.5442 69.1673 87.249C68.3217 90.9538 51.8253 91.4111 55.3912 92.225C58.9571 93.0389 83.1796 94.345 84.0252 90.6402Z" fill="#F25076" fill-opacity="0.4"/>
<path d="M92.1408 80.4635C95.5645 78.8147 88.9012 55.4902 87.3142 52.1948C85.7272 48.8994 88.9522 65.0839 85.5285 66.7327C82.1048 68.3815 71.4617 55.7692 73.0487 59.0646C74.6357 62.36 88.7171 82.1123 92.1408 80.4635Z" fill="#F25076" fill-opacity="0.4"/>
<path d="M105.157 80.4635C108.581 82.1123 122.663 62.36 124.25 59.0646C125.837 55.7692 115.193 68.3815 111.77 66.7327C108.346 65.0839 111.571 48.8994 109.984 52.1948C108.397 55.4902 101.734 78.8147 105.157 80.4635Z" fill="#F25076" fill-opacity="0.4"/>
<path d="M113.273 90.6402C114.119 94.345 138.341 93.0389 141.907 92.225C145.473 91.4111 128.977 90.9538 128.131 87.249C127.285 83.5442 141.95 75.9746 138.384 76.7885C134.818 77.6024 112.427 86.9354 113.273 90.6402Z" fill="#F25076" fill-opacity="0.4"/>
<path d="M110.377 103.33C108.007 106.301 124.131 124.425 126.991 126.705C129.85 128.986 119.922 115.803 122.292 112.832C124.661 109.861 139.722 116.607 136.863 114.326C134.003 112.046 112.746 100.359 110.377 103.33Z" fill="#F25076" fill-opacity="0.4"/>
<path d="M98.6491 108.978C96.7491 108.978 94.6907 129.372 94.6907 129.4C94.6907 129.429 96.7491 109.098 98.6491 109.098C100.549 109.098 102.608 129.429 102.608 129.4C102.608 129.372 100.549 108.978 98.6491 108.978Z" fill="#F25076" fill-opacity="0.4"/>
<path d="M86.9216 103.33C85.737 101.845 68.5093 112.951 68.4868 112.969C68.4643 112.987 85.6432 101.92 86.8278 103.405C88.0124 104.891 73.4003 119.176 73.4228 119.158C73.4453 119.14 88.1062 104.816 86.9216 103.33Z" fill="#F25076" fill-opacity="0.4"/>
<path d="M84.0252 90.6402C84.448 88.7878 65.0238 82.2431 64.9957 82.2367C64.9676 82.2303 84.331 88.7611 83.9082 90.6135C83.4854 92.4659 63.206 89.9485 63.2341 89.9549C63.2622 89.9613 83.6024 92.4926 84.0252 90.6402Z" fill="#F25076" fill-opacity="0.4"/>
<path d="M92.1408 80.4635C93.8526 79.6391 86.8587 60.372 86.8462 60.3461C86.8337 60.3202 93.8006 79.531 92.0888 80.3554C90.377 81.1798 79.701 63.7552 79.7135 63.7811C79.726 63.807 90.429 81.2879 92.1408 80.4635Z" fill="#F25076" fill-opacity="0.4"/>
<path d="M105.157 80.4635C106.869 81.2879 117.572 63.807 117.585 63.7811C117.597 63.7552 106.921 81.1798 105.209 80.3554C103.498 79.531 110.465 60.3202 110.452 60.3461C110.44 60.372 103.446 79.6391 105.157 80.4635Z" fill="#F25076" fill-opacity="0.4"/>
<path d="M113.273 90.6402C113.696 92.4926 134.036 89.9613 134.064 89.9549C134.092 89.9485 113.813 92.4659 113.39 90.6135C112.967 88.7611 132.331 82.2303 132.303 82.2367C132.274 82.2431 112.85 88.7878 113.273 90.6402Z" fill="#F25076" fill-opacity="0.4"/>
<path d="M110.377 103.33C109.192 104.816 123.853 119.14 123.875 119.158C123.898 119.176 109.286 104.891 110.47 103.405C111.655 101.92 128.834 112.987 128.811 112.969C128.789 112.951 111.561 101.845 110.377 103.33Z" fill="#F25076" fill-opacity="0.4"/>
<path d="M98.6491 108.978C97.8891 108.978 97.0658 127.264 97.0658 125.116C97.0658 122.967 97.8891 100.026 98.6491 100.026C99.4091 100.026 100.232 122.967 100.232 125.116C100.232 127.264 99.4091 108.978 98.6491 108.978Z" fill="#F25076" fill-opacity="0.4"/>
<path d="M86.9216 103.33C86.4477 102.736 71.6376 113.494 73.3174 112.154C74.9972 110.815 93.4467 97.1547 93.9206 97.7489C94.3945 98.3431 76.9716 113.29 75.2918 114.63C73.612 115.969 87.3955 103.925 86.9216 103.33Z" fill="#F25076" fill-opacity="0.4"/>
<path d="M84.0252 90.6402C84.1943 89.8992 66.5498 85.0275 68.6444 85.5056C70.739 85.9837 92.9218 91.8912 92.7527 92.6322C92.5836 93.3732 70.0344 89.071 67.9398 88.5929C65.8452 88.1148 83.8561 91.3812 84.0252 90.6402Z" fill="#F25076" fill-opacity="0.4"/>
<path d="M92.1408 80.4635C92.8255 80.1338 85.6333 63.3014 86.5655 65.2371C87.4977 67.1728 96.7097 88.1993 96.025 88.529C95.3403 88.8587 84.6446 68.5467 83.7124 66.611C82.7802 64.6753 91.4561 80.7932 92.1408 80.4635Z" fill="#F25076" fill-opacity="0.4"/>
<path d="M105.157 80.4635C105.842 80.7932 114.518 64.6753 113.586 66.611C112.654 68.5467 101.958 88.8587 101.273 88.529C100.588 88.1993 109.8 67.1728 110.733 65.2371C111.665 63.3014 104.473 80.1338 105.157 80.4635Z" fill="#F25076" fill-opacity="0.4"/>
<path d="M113.273 90.6402C113.442 91.3812 131.453 88.1148 129.358 88.5929C127.264 89.071 104.715 93.3732 104.546 92.6322C104.376 91.8912 126.559 85.9837 128.654 85.5056C130.748 85.0275 113.104 89.8992 113.273 90.6402Z" fill="#F25076" fill-opacity="0.4"/>
<path d="M110.377 103.33C109.903 103.925 123.686 115.969 122.006 114.63C120.327 113.29 102.904 98.3431 103.378 97.7489C103.851 97.1547 122.301 110.815 123.981 112.154C125.661 113.494 110.851 102.736 110.377 103.33Z" fill="#F25076" fill-opacity="0.4"/>
<path d="M98.6491 108.978C98.4211 108.978 98.1741 126.281 98.1741 123.116C98.1741 119.952 98.4211 95.7924 98.6491 95.7924C98.8771 95.7924 99.1241 119.952 99.1241 123.116C99.1241 126.281 98.8771 108.978 98.6491 108.978Z" fill="#F25076" fill-opacity="0.4"/>
<path d="M86.9216 103.33C86.7794 103.152 73.0977 113.747 75.5718 111.774C78.0459 109.801 97.0883 94.931 97.2305 95.1093C97.3727 95.2876 78.6382 110.544 76.1641 112.517C73.69 114.49 87.0638 103.509 86.9216 103.33Z" fill="#F25076" fill-opacity="0.4"/>
<path d="M84.0252 90.6402C84.0759 90.4179 67.262 86.3269 70.3472 87.0311C73.4324 87.7353 96.9309 93.352 96.8802 93.5743C96.8295 93.7966 73.221 88.6615 70.1358 87.9573C67.0506 87.2531 83.9745 90.8625 84.0252 90.6402Z" fill="#F25076" fill-opacity="0.4"/>
<path d="M92.1408 80.4635C92.3462 80.3646 85.0613 64.6681 86.4344 67.5193C87.8075 70.3705 98.0673 92.2444 97.8619 92.3433C97.6565 92.4422 86.9516 70.7827 85.5785 67.9315C84.2054 65.0803 91.9354 80.5624 92.1408 80.4635Z" fill="#F25076" fill-opacity="0.4"/>
<path d="M105.157 80.4635C105.363 80.5624 113.093 65.0803 111.72 67.9315C110.347 70.7827 99.6417 92.4422 99.4363 92.3433C99.2309 92.2444 109.491 70.3705 110.864 67.5193C112.237 64.6681 104.952 80.3646 105.157 80.4635Z" fill="#F25076" fill-opacity="0.4"/>
<path d="M113.273 90.6402C113.324 90.8625 130.248 87.2531 127.162 87.9573C124.077 88.6615 100.469 93.7966 100.418 93.5743C100.367 93.352 123.866 87.7353 126.951 87.0311C130.036 86.3269 113.222 90.4179 113.273 90.6402Z" fill="#F25076" fill-opacity="0.4"/>
<path d="M110.377 103.33C110.234 103.509 123.608 114.49 121.134 112.517C118.66 110.544 99.9255 95.2876 100.068 95.1093C100.21 94.931 119.252 109.801 121.726 111.774C124.201 113.747 110.519 103.152 110.377 103.33Z" fill="#F25076" fill-opacity="0.4"/>
<path d="M98.6491 108.978C98.6035 108.978 98.5541 125.944 98.5541 122.431C98.5541 118.918 98.6035 94.3409 98.6491 94.3409C98.6947 94.3409 98.7441 118.918 98.7441 122.431C98.7441 125.944 98.6947 108.978 98.6491 108.978Z" fill="#F25076" fill-opacity="0.4"/>
<path d="M86.9216 103.33C86.8932 103.295 73.5982 113.834 76.3447 111.644C79.0912 109.453 98.337 94.1686 98.3654 94.2043C98.3938 94.24 79.2096 109.602 76.4631 111.792C73.7166 113.982 86.95 103.366 86.9216 103.33Z" fill="#F25076" fill-opacity="0.4"/>
<path d="M84.0252 90.6402C84.0354 90.5958 67.5062 86.7724 70.931 87.5541C74.3558 88.3358 98.3055 93.8529 98.2953 93.8973C98.2851 93.9417 74.3135 88.521 70.8887 87.7393C67.4639 86.9576 84.015 90.6846 84.0252 90.6402Z" fill="#F25076" fill-opacity="0.4"/>
<path d="M92.1408 80.4635C92.1819 80.4437 84.8653 65.1369 86.3895 68.3019C87.9137 71.4669 98.5328 93.6313 98.4917 93.6511C98.4506 93.6709 87.7425 71.5493 86.2183 68.3843C84.6941 65.2193 92.0997 80.4833 92.1408 80.4635Z" fill="#F25076" fill-opacity="0.4"/>
<path d="M105.157 80.4635C105.199 80.4833 112.604 65.2193 111.08 68.3843C109.556 71.5493 98.8476 93.6709 98.8065 93.6511C98.7654 93.6313 109.385 71.4669 110.909 68.3019C112.433 65.1369 105.116 80.4437 105.157 80.4635Z" fill="#F25076" fill-opacity="0.4"/>
<path d="M113.273 90.6402C113.283 90.6846 129.834 86.9576 126.41 87.7393C122.985 88.521 99.0131 93.9417 99.0029 93.8973C98.9927 93.8529 122.942 88.3358 126.367 87.5541C129.792 86.7724 113.263 90.5958 113.273 90.6402Z" fill="#F25076" fill-opacity="0.4"/>
<path d="M110.377 103.33C110.348 103.366 123.582 113.982 120.835 111.792C118.089 109.602 98.9044 94.24 98.9328 94.2043C98.9612 94.1686 118.207 109.453 120.953 111.644C123.7 113.834 110.405 103.295 110.377 103.33Z" fill="#F25076" fill-opacity="0.4"/>
<path d="M98.6491 108.978C98.6445 108.978 98.6396 125.868 98.6396 122.276C98.6396 118.685 98.6445 94.0143 98.6491 94.0143C98.6537 94.0143 98.6586 118.685 98.6586 122.276C98.6586 125.868 98.6537 108.978 98.6491 108.978Z" fill="#F25076" fill-opacity="0.4"/>
<path d="M86.9216 103.33C86.9188 103.327 73.7108 113.853 76.5186 111.614C79.3264 109.375 98.6179 93.997 98.6207 94.0006C98.6235 94.0042 79.3382 109.39 76.5304 111.629C73.7226 113.868 86.9244 103.334 86.9216 103.33Z" fill="#F25076" fill-opacity="0.4"/>
<path d="M84.0252 90.6402C84.0262 90.6358 67.5611 86.8727 71.0623 87.6718C74.5635 88.4709 98.6147 93.9655 98.6137 93.9699C98.6127 93.9743 74.5593 88.4894 71.0581 87.6903C67.5569 86.8912 84.0242 90.6446 84.0252 90.6402Z" fill="#F25076" fill-opacity="0.4"/>
<path d="M92.1408 80.4635C92.1449 80.4615 84.8212 65.2423 86.3794 68.4779C87.9376 71.7135 98.6375 93.9433 98.6334 93.9453C98.6293 93.9473 87.9205 71.7218 86.3623 68.4862C84.8041 65.2506 92.1367 80.4655 92.1408 80.4635Z" fill="#F25076" fill-opacity="0.4"/>
<path d="M105.157 80.4635C105.162 80.4655 112.494 65.2506 110.936 68.4862C109.378 71.7218 98.6689 93.9473 98.6648 93.9453C98.6607 93.9433 109.361 71.7135 110.919 68.4779C112.477 65.2423 105.153 80.4615 105.157 80.4635Z" fill="#F25076" fill-opacity="0.4"/>
<path d="M113.273 90.6402C113.274 90.6446 129.741 86.8912 126.24 87.6903C122.739 88.4894 98.6855 93.9743 98.6845 93.9699C98.6835 93.9655 122.735 88.4709 126.236 87.6718C129.737 86.8727 113.272 90.6358 113.273 90.6402Z" fill="#F25076" fill-opacity="0.4"/>
<path d="M110.377 103.33C110.374 103.334 123.576 113.868 120.768 111.629C117.96 109.39 98.6747 94.0042 98.6775 94.0006C98.6803 93.997 117.972 109.375 120.78 111.614C123.587 113.853 110.379 103.327 110.377 103.33Z" fill="#F25076" fill-opacity="0.4"/>
</g>
</svg>
