<svg width="40" height="37" viewBox="0 0 40 37" fill="none" xmlns="http://www.w3.org/2000/svg">
<path d="M6.66666 29.2917V26.2083H9.99999V15.4167C9.99999 13.284 10.6944 11.3955 12.0833 9.75104C13.4722 8.0809 15.2778 6.98889 17.5 6.475V5.39584C17.5 4.75347 17.7361 4.21389 18.2083 3.77708C18.7083 3.31459 19.3055 3.08334 20 3.08334C20.6944 3.08334 21.2778 3.31459 21.75 3.77708C22.25 4.21389 22.5 4.75347 22.5 5.39584V6.475C24.7222 6.98889 26.5278 8.0809 27.9167 9.75104C29.3055 11.3955 30 13.284 30 15.4167V26.2083H33.3333V29.2917H6.66666ZM20 33.9167C19.0833 33.9167 18.2917 33.6212 17.625 33.0302C16.9861 32.4135 16.6667 31.6813 16.6667 30.8333H23.3333C23.3333 31.6813 23 32.4135 22.3333 33.0302C21.6944 33.6212 20.9167 33.9167 20 33.9167ZM13.3333 26.2083H26.6667V15.4167C26.6667 13.7208 26.0139 12.2691 24.7083 11.0615C23.4028 9.85382 21.8333 9.25 20 9.25C18.1667 9.25 16.5972 9.85382 15.2917 11.0615C13.9861 12.2691 13.3333 13.7208 13.3333 15.4167V26.2083Z" fill="#E5CA5F"/>
</svg>
